<svg version="1.0" xmlns="http://www.w3.org/2000/svg" width="933.333" height="933.333" viewBox="0 0 700 700"><g fill="#ff585d"><path d="M338 14.5c-28.9 4.9-49.9 21.3-67 52-13.4 24-75 147.1-97.7 195-8.3 17.6-17.2 36.3-19.6 41.5-22.2 46.8-32.1 71-35.1 85.5-5.9 29.3 1 61.1 18.5 84.5 6.1 8.2 17.5 19.5 25.4 25.2 18 13 44.9 20.7 67.5 19.4 38.7-2.3 73-20.6 112-60l9.4-9.6 10.6 10.8c43.2 44.2 88.2 64.1 130.7 57.8 36-5.3 65.3-26.1 82-58.1 8.5-16.4 11.8-31.8 11-52.5-.9-25.9-3.6-33.1-48-127-23.6-50.1-31.5-66.3-62.8-128.5-34.5-68.7-42.8-84.4-50.6-96.2-15.1-22.5-35.1-35.7-60.3-39.9-10.1-1.7-15.9-1.6-26 .1zm23.8 33.9c13 2.8 24.5 10.5 32.6 21.9 6.3 8.9 25.7 45.9 58.5 111.7 34.4 69 39 78.6 69.3 143.5 17.5 37.3 24 52.2 27.5 62.7 2.6 7.7 2.8 9.5 2.8 23.8-.1 14.2-.3 16.1-2.8 22.9-7.6 21-23.3 37.8-42.5 45.6-22 8.9-47.9 6.9-72.5-5.8-16-8.2-40.6-27.9-54.7-43.8-6.1-6.9-6.2-6.9-4.3-9.2 26-33.3 46.1-67.7 54.8-94.2 4.6-14 7.5-31 7.5-43.5 0-40.8-23.5-71.9-63-83.3-6.3-1.8-10.1-2.2-23.5-2.2-13.7 0-17.2.4-24 2.3-24.2 6.9-43.3 22.2-53.5 42.9-6.9 13.9-8.4 21.2-8.4 40.3-.1 12.4.4 18.6 1.7 25 6.6 30.6 24.2 65.4 51.1 101l10.9 14.5-16 15.5c-26.6 25.8-45.4 37.7-69.3 43.6-41 10.2-81.4-13-91.9-52.8-6.3-23.7-3.2-37.2 19.1-85.3 32.1-68.9 47.8-101.6 81.7-169.5 48.8-97.6 54.5-107.7 66.3-117.1 12.7-10.1 27.5-13.7 42.6-10.5zm4.1 185.1C389.1 239 404 258.8 404 284c0 9.4-2.9 24.7-6.6 35.2-7.3 20.5-22.4 47.1-39.8 70.2l-5.9 8-2.9-3.5c-9.9-11.8-25.3-35.9-34.1-53.4C304 319.2 299 301.1 299 284c0-25.4 13-43.3 36.5-50.1 7.6-2.2 21.8-2.4 30.4-.4zM130.7 583c-9.5 2.4-17.5 9.1-21.5 17.9-3.3 7.3-4.3 22.9-1.9 31.2 3.4 11.4 11.7 19.8 22.8 23 7.3 2.1 23.3 1.6 31.2-1l6.7-2.3v-16.6l-7.2 2.6c-5.4 1.8-9.5 2.5-15.3 2.6-9.6.1-13.5-1.8-16.5-7.9-3.8-7.9-4.8-7.5 20.5-7.5H172v-8.8c0-5-.7-11.1-1.5-13.9-2-6.8-8.8-14.3-15.7-17.3-5.9-2.5-18-3.5-24.1-2zm17 16.7c2.3 1.5 3.1 3 4.3 8l.8 3.3H127.1l1.4-4.6c1.4-4.8 4.1-7.5 8.5-8.5 3.2-.8 7.9 0 10.7 1.8zM219.5 582.9c-4.5 1.2-9.5 4-12.1 6.8l-2.3 2.5-1.3-4.6-1.2-4.7-8.1.3-8 .3-.3 35.7-.2 35.8h20.8l.4-22.3c.5-24.1 1.2-28 6.1-31.2 3.6-2.3 9.2-3 12.8-1.5 5.4 2.3 5.9 5.1 5.9 31.5V655h21.1l-.3-27.8c-.3-24-.6-28.2-2.1-31.7-3.8-8.5-10.2-12.5-21.1-13-3.9-.3-8.4-.1-10.1.4zM439.9 582.9c-4.1 1.3-7.2 3.1-10.5 6.3l-3.1 2.9-1.2-4.5-1.1-4.6h-16v72h21v-21.3c0-22.2.7-27.1 4.3-31.2 3.2-3.6 10.3-4.4 13.8-1.6 4.1 3.2 4.9 8.7 4.9 32.5V655h21v-22.3c0-21.1.1-22.5 2.3-26.7 3.5-7.1 11-9.3 16.2-4.8 3.6 3.2 4.5 10.1 4.5 34V655h21.2l-.4-27.3c-.4-22.3-.8-28-2.2-31.7-3.6-9.5-10.1-13.4-22.6-13.5-9.5 0-14.1 1.6-19.3 6.9l-3 3.1-4.2-4.1c-5.8-5.7-17-8.1-25.6-5.5zM555.8 582.9c-10.6 2.2-20.2 11.2-23.3 21.7-2.5 8.8-2.3 23.4.5 30.8 7 18.3 28.9 25.9 53.3 18.4l6.7-2.1v-16.5l-5.6 1.9c-3.1 1.1-9.2 2.5-13.4 3.1-6.7 1-8.3.9-12.2-.5-5.1-2-8.7-6.2-9.5-11.3l-.6-3.4h45.6l-.5-10.3c-.8-16-5.8-24.7-17.2-29.8-5.3-2.3-17.4-3.4-23.8-2zm12.3 15.1c4.6 1.3 7.8 4.8 8.6 9.4l.6 3.6h-25.5l.7-2.8c1.2-5 4-8.7 7.5-9.9 4.4-1.5 3.8-1.5 8.1-.3zM267 591.5v8.4l14.4.3 14.4.3-9.9 13.5c-21.8 29.5-20.9 28.1-20.9 34.9v6.1h57v-16l-15.8-.2-15.9-.3 15.4-21 15.4-21-.3-6.5-.3-6.5-26.7-.3-26.8-.2v8.5zM324 583.5c0 .3 6.3 16.3 14.1 35.6l14.1 35.1-1.7 4.4c-.9 2.3-3.2 5.7-5.2 7.4-3.3 2.9-4 3.1-9.9 2.8l-6.4-.3V686h8.3c5 0 10.2-.6 13-1.6 5.9-2 12.6-7.9 15.9-14 2.7-5.1 32.8-84.1 32.8-86.3 0-.8-2.8-1.1-10.7-.9l-10.8.3-7.7 22.9c-6.5 19.3-7.9 22.6-8.6 20.5-.5-1.3-4-11.7-7.8-23.2l-6.8-20.7h-11.3c-6.2 0-11.3.2-11.3.5z"/></g></svg>